<?xml version="1.0" standalone="no"?>
<!DOCTYPE svg PUBLIC "-//W3C//DTD SVG 20010904//EN"
 "http://www.w3.org/TR/2001/REC-SVG-20010904/DTD/svg10.dtd">
<svg version="1.0" xmlns="http://www.w3.org/2000/svg"
 width="512.000000pt" height="512.000000pt" viewBox="0 0 512.000000 512.000000"
 preserveAspectRatio="xMidYMid meet">
<metadata>
Created by potrace 1.14, written by Peter Selinger 2001-2017
</metadata>
<g transform="translate(0.000000,512.000000) scale(0.100000,-0.100000)"
fill="#000000" stroke="none">
<path d="M1773 4830 c-641 -51 -1194 -479 -1402 -1086 -70 -207 -93 -413 -86
-784 3 -176 9 -265 25 -354 108 -623 588 -1132 1205 -1277 66 -16 137 -31 158
-34 l37 -6 0 -393 0 -393 31 -61 c91 -182 330 -210 471 -53 72 79 697 751 767
824 l65 67 136 0 c213 0 376 25 559 86 357 118 673 372 864 693 105 176 156
303 198 496 44 199 43 797 -1 1010 -85 402 -307 746 -631 977 -200 143 -417
231 -689 279 -78 13 -1549 21 -1707 9z m1672 -295 c547 -86 959 -484 1081
-1045 17 -74 19 -131 19 -435 0 -385 -5 -428 -67 -605 -69 -194 -167 -351
-312 -496 -107 -107 -206 -178 -336 -244 -223 -112 -418 -150 -766 -150 l-151
0 -109 -117 c-100 -108 -384 -413 -660 -709 -63 -67 -122 -132 -133 -145 l-20
-24 -1 496 0 496 -67 6 c-38 4 -91 7 -119 7 -132 0 -355 60 -509 137 -305 153
-547 431 -656 750 -60 178 -64 216 -64 603 0 354 0 355 28 463 32 128 72 233
129 337 198 362 568 620 974 679 33 5 417 9 854 10 642 0 812 -2 885 -14z"/>
<path d="M2427 4110 c-186 -33 -371 -127 -517 -262 l-61 -57 48 -59 c206 -252
214 -260 226 -229 8 22 139 123 202 156 114 60 255 82 390 61 154 -23 225 -88
225 -205 0 -94 -45 -147 -183 -216 -247 -124 -321 -230 -334 -481 l-6 -118
141 0 140 0 11 52 c24 108 91 173 282 273 106 55 148 83 200 135 76 74 100
117 130 227 38 137 13 329 -57 451 -65 110 -224 218 -384 258 -75 18 -376 28
-453 14z"/>
<path d="M2497 2406 c-91 -34 -147 -111 -147 -202 1 -172 197 -273 333 -171
123 93 113 281 -20 355 -52 29 -118 36 -166 18z"/>
</g>
</svg>
